<svg width="32" height="40" viewBox="0 0 32 40" fill="none" xmlns="http://www.w3.org/2000/svg">
<path fill-rule="evenodd" clip-rule="evenodd" d="M16.0002 40C15.5942 40 15.1882 39.876 14.8402 39.628C14.2322 39.198 -0.0578239 28.88 0.000176075 15.99C0.000176075 7.178 7.17817 0 16.0002 0C24.8222 0 32.0002 7.178 32.0002 16C32.0582 28.88 17.7682 39.198 17.1602 39.628C16.8122 39.876 16.4062 40 16.0002 40ZM16 24C20.4183 24 24 20.4183 24 16C24 11.5817 20.4183 8 16 8C11.5817 8 8 11.5817 8 16C8 20.4183 11.5817 24 16 24Z" fill="#6366F1"/>
</svg>
